<?xml version="1.0" encoding="utf-8"?>
<!-- Generator: Adobe Illustrator 21.1.0, SVG Export Plug-In . SVG Version: 6.00 Build 0)  -->
<svg version="1.1" id="Layer_1" xmlns="http://www.w3.org/2000/svg" xmlns:xlink="http://www.w3.org/1999/xlink" x="0px" y="0px"
	 viewBox="0 0 100 100" style="enable-background:new 0 0 100 100;" xml:space="preserve">
<path d="M97.5,0h-95C1.1,0,0,1.1,0,2.5v95c0,1.4,1.1,2.5,2.5,2.5h95c1.4,0,2.5-1.1,2.5-2.5v-95C100,1.1,98.9,0,97.5,0z M66,44.5
	c-0.4,1.4-1.8,11.9-2.4,14.1c-1.3,3.1-2.4,6.3-3.4,9.5l-0.1,14.4H42.7h-1.1c0.1,0,0-11.3,0-13.7c0-2.2-0.6-3.8-5.2-8.1
	c-1.2-1.8-3.7-6.1-3.4-9.1c0.2-2.1,2.8-5,3.5-7.1c-0.8-3.4-1.9-6.7-3.3-9.9C32.1,30.6,30,21.9,30,21.3c0.2-5.1,4.3-4.2,5.2-2.1
	s1.9,6.2,2.9,9.8c1,2.8,2.2,5.5,3.6,8.2c0.6,1.2,1.1,0.9,1.6,0.1c0.6-1.7,2.1-2.9,3.9-3c2.4,0,3.2,2.7,3.3,3.7
	c0.1,1,1.3,0.8,1.6,0.1c0.2-0.8,0.9-3.2,3.4-3c2.6,0.2,2.9,2.1,3.3,3.7c0.4,1.8,1.5,0,1.5,0s1-2,1.8-4c0.8-2.1,1.4-5.5,2.8-10.1
	c1.6-5,5.3-2.7,5.1,0.6C69.9,27.7,66.3,43.1,66,44.5z"/>
</svg>
