<?xml version="1.0" encoding="utf-8"?>
<!-- Generator: Adobe Illustrator 21.1.0, SVG Export Plug-In . SVG Version: 6.00 Build 0)  -->
<svg version="1.1" id="Layer_1" xmlns="http://www.w3.org/2000/svg" xmlns:xlink="http://www.w3.org/1999/xlink" x="0px" y="0px"
	 viewBox="0 0 100 100" style="enable-background:new 0 0 100 100;" xml:space="preserve">
<path id="speaker_1_" d="M90.8,52h-4v-5.1c0-0.3-0.1-0.6-0.3-0.8l-1.2-1.4c0.2-0.4,0.3-0.8,0.3-1.2c0-1.7-1.3-3-3-3s-3,1.3-3,3
	s1.3,3,3,3c0.3,0,0.6-0.1,0.8-0.1l0.9,1V52h-8.4C75,44.7,71,33.5,60.2,33.5c-0.4,0-0.9,0.1-1.2,0.3V30c3.1-3.1,5-7.8,5-13
	c0-9.4-6.3-17-14-17S36,7.6,36,17c0,5.2,1.9,9.9,5,13v4.1c0,0-0.1,0-0.1,0c-0.4-0.4-1-0.5-1.6-0.5c-3.8,0-7,1.3-9.6,3.8
	c-4.3,4.3-5.4,11.3-5.7,14.7H9.2c-1.4,0-2.5,1.1-2.5,2.5v8c0,0.5,0.1,0.9,0.4,1.3l4.9,8c0.5,0.7,1.3,1.2,2.1,1.2h5.5l3.1,24.8
	c0.2,1.3,1.2,2.2,2.5,2.2h14.3c0,0,0,0,0,0h19.9c0,0,0,0,0,0h15.3c1.3,0,2.3-0.9,2.5-2.2L80.3,73h5.5c0.9,0,1.7-0.5,2.1-1.2l4.9-8
	c0.2-0.4,0.4-0.8,0.4-1.3v-8C93.2,53.1,92.1,52,90.8,52z M50,5c5,0,9,5.4,9,12c0,5.7-3,10.6-7.1,11.7c-0.6,0.1-1.2,0.2-1.9,0.2
	c-0.7,0-1.4-0.1-1.9-0.2C44,27.6,41,22.7,41,17C41,10.4,45,5,50,5z M46,33.3c0.3,0.1,0.7,0.2,1.1,0.3c0.2,0.1,0.5,0.1,0.7,0.1
	c0,0,0,0,0,0c0.7,0.1,1.4,0.2,2.2,0.2s1.5-0.1,2.2-0.2c0,0,0,0,0,0c0.2,0,0.5-0.1,0.7-0.1c0.4-0.1,0.8-0.2,1.1-0.3V36
	c-1.1,0.2-2.5,0.4-4,0.4c-1.4,0-2.6-0.1-3.6-0.3c-0.1,0-0.2,0-0.3-0.1c0,0,0,0,0,0V33.3z M30.5,45.7c1.7-4.6,4.3-7,8.2-7.2
	c0.8,0.5,2.1,1.2,3.8,1.7c0.1,0,0.2,0.1,0.3,0.1c0.1,0,3.4,1.1,7.3,1.1s7.2-1.1,7.3-1.1c0.2-0.1,0.4-0.2,0.5-0.3
	c1.4-0.5,2.5-1.1,3.2-1.6c3.7,0.3,6.3,2.7,8.1,7.3c0.8,2,1.3,4.1,1.5,5.7H29.2C29.4,49.9,29.7,47.8,30.5,45.7z M41.7,95
	c1.4-2.9,4.4-5,7.8-5s6.4,2,7.8,5H41.7z M60,95c-1.5-4.3-5.7-7.5-10.5-7.5s-9,3.1-10.5,7.5h-1c1.5-5,6.1-8.6,11.6-8.6
	S59.6,90,61.1,95H60z M72.5,95h-9.9c-1.6-5.8-6.8-10.1-13.1-10.1S37.9,89.2,36.4,95h-8.9l-3.4-27h51.8L72.5,95z M88.2,61.8L84.4,68
	H81l0.3-2.2c0.1-0.7-0.1-1.4-0.6-2S79.5,63,78.8,63H21.2c-0.7,0-1.4,0.3-1.9,0.8s-0.7,1.3-0.6,2L19,68h-3.5l-3.8-6.2V57h76.5V61.8z"
	/>
</svg>
