<?xml version="1.0" encoding="utf-8"?>
<!-- Generator: Adobe Illustrator 21.1.0, SVG Export Plug-In . SVG Version: 6.00 Build 0)  -->
<svg version="1.1" id="Layer_1" xmlns="http://www.w3.org/2000/svg" xmlns:xlink="http://www.w3.org/1999/xlink" x="0px" y="0px"
	 viewBox="0 0 100 100" style="enable-background:new 0 0 100 100;" xml:space="preserve">
<path id="store" d="M58.5,49.1v-0.9H58L57.6,49c-0.2-0.5-0.7-0.8-1.5-0.8c-1.1,0.3-1.8,0.7-1.8,1.4c0,0.5,0.3,1,0.9,1.2l-0.9,0.6
	v0.2c0,0.4,0.2,0.7,0.8,0.9l-1,0.7v0.2c0,0.7,0.8,1,1.9,1c1.3-0.4,2.2-1,2.2-1.9c0-0.5-0.3-0.9-1-0.9h-1.7c-0.2,0-0.4-0.1-0.4-0.3
	l0.3-0.3c0.2,0,0.4,0.1,0.5,0.1c1.2-0.3,1.8-0.7,1.8-1.5c0-0.1,0-0.2-0.1-0.3l0.1-0.1H58.5z M55.4,52.6H57c0.4,0,0.6,0.2,0.6,0.4
	c0,0.4-0.4,0.7-1.1,0.7h-0.4c-0.6,0-1-0.3-1-0.6C55.1,52.9,55.2,52.8,55.4,52.6z M56.1,50.7c-0.5,0-0.6-0.5-0.6-1.2
	c0-0.6,0.2-1,0.5-1c0.5,0,0.6,0.5,0.6,1.2C56.7,50.3,56.5,50.7,56.1,50.7z M68.9,44.1c-0.7,0-1.2-0.5-1.3-1.4h2.4v-0.4
	c0-0.9-0.6-1.5-1.6-1.5c-1.3,0.3-2,1.1-2,2.3c0,1.2,0.9,2,2,2c0.6-0.2,1.1-0.5,1.6-0.9l-0.1-0.2C69.7,43.9,69.3,44.1,68.9,44.1z
	 M67.6,42.3c0-0.7,0.2-1.2,0.7-1.2c0.5,0,0.6,0.4,0.6,1.1v0.2L67.6,42.3C67.6,42.4,67.6,42.3,67.6,42.3z M40.2,31.8l-0.5-0.1l0-0.3
	l1.3,0l1.1,0l0,0.3l-0.6,0.1l1.2,3.9l0,0.4l0.9-3.2l-0.4-1.1L43,31.8l0-0.3l1.2,0l1.1,0l0,0.3l-0.6,0.1l1.2,3.9l0,0.4l1.3-4.3
	l-0.7-0.1l0-0.3l0.8,0l0.7,0l0,0.3l-0.5,0.1l-1.7,5.4l-0.8,0.2L44,33.8l0-0.3l-1.1,3.8l-0.8,0.2L40.2,31.8z M50.7,44.1
	c0-0.3-0.1-0.4-0.6-0.7L49.4,43c-0.4-0.2-0.7-0.5-0.7-1c0-0.6,0.4-1,1.6-1.3c0.6,0,1,0.1,1.3,0.3v1.1h-0.3l-0.4-0.8
	c-0.2-0.2-0.4-0.3-0.6-0.3c-0.3,0-0.5,0.2-0.5,0.4c0,0.3,0.2,0.4,0.6,0.7l0.7,0.4c0.5,0.3,0.7,0.6,0.7,1c0,0.7-0.5,1.1-1.6,1.3
	c-0.5,0-1-0.1-1.4-0.3l-0.1-1.2h0.3l0.4,0.8c0.2,0.2,0.5,0.4,0.8,0.4C50.4,44.6,50.7,44.4,50.7,44.1z M48.5,31.9l0-0.3l1.3-0.2
	l0.3,0v2.7l1.4-0.8c0.5,0,0.7,0.1,0.9,0.3c0.2,0.2,0.2,0.5,0.2,1V37l0.5,0.1l0,0.3l-1,0l-0.9,0l0-0.3l0.3-0.1v-2.5
	c0-0.3-0.1-0.5-0.4-0.5c-0.2,0-0.4,0.1-0.7,0.3l-0.2,0.1V37l0.3,0.1l0,0.3l-0.9,0l-1,0l0-0.3L49,37v-5.1L48.5,31.9z M47.6,44.2
	c0.2,0,0.4-0.1,0.7-0.2l0.1,0.2l-1.3,0.7c-0.7,0-1.1-0.3-1.1-1.1v-2.6h-0.6v-0.1l0.2-0.2H46v-0.6l1-0.6h0.2V41h1.1v0.3h-1.1v2.4
	C47.1,44,47.3,44.2,47.6,44.2z M52.3,52v-2.5c0-0.3-0.1-0.5-0.4-0.5c-0.2,0-0.4,0.1-0.7,0.3l-0.2,0.1V52l0.3,0.1l0,0.3l-0.9,0l-1,0
	l0-0.3l0.5-0.1v-3.2l-0.5,0.1l0-0.3l1.3-0.3l0.3,0l0,0.8l1.4-0.8c0.4,0,0.7,0.1,0.9,0.3c0.2,0.2,0.3,0.5,0.3,1V52L54,52l0,0.3l-1,0
	l-0.9,0l0-0.3L52.3,52z M62.7,49.5c0-0.6,0.4-1,1.6-1.3c0.6,0,1,0.1,1.3,0.3v1.1h-0.3l-0.4-0.8c-0.2-0.2-0.4-0.3-0.6-0.3
	c-0.3,0-0.5,0.2-0.5,0.4c0,0.3,0.2,0.4,0.6,0.7l0.7,0.4c0.5,0.3,0.7,0.6,0.7,1c0,0.7-0.5,1.1-1.6,1.3c-0.5,0-1-0.1-1.4-0.3l-0.1-1.2
	h0.3l0.4,0.8c0.2,0.2,0.5,0.4,0.8,0.4c0.4,0,0.6-0.2,0.6-0.5c0-0.3-0.1-0.4-0.6-0.7l-0.7-0.4C63,50.3,62.7,50,62.7,49.5z M59.3,43
	c0,1.2,0.9,2,2,2c0.6-0.2,1.1-0.5,1.6-0.9l-0.1-0.2c-0.3,0.2-0.6,0.3-1,0.3c-0.7,0-1.2-0.5-1.3-1.4h2.4v-0.4c0-0.9-0.6-1.5-1.6-1.5
	C60,41,59.3,41.8,59.3,43z M61,41.1c0.5,0,0.6,0.4,0.6,1.1v0.2l-1.3,0c0,0,0-0.1,0-0.1C60.4,41.6,60.6,41.1,61,41.1z M63.2,41.4
	l0-0.3l1.3-0.3l0.3,0l0.1,1.3l0.8-1.4h0.7v1.2h-1c-0.1,0-0.3,0.3-0.4,0.4l-0.1,0.1v2l0.8,0.1l0,0.3l-1.3,0l-1,0l0-0.3l0.5-0.1v-3.2
	L63.2,41.4z M53.9,44.5v-5.1l-0.6-0.1l0-0.3l1.2,0l1.2,0l0,0.3l-0.5,0.1v2.3h2.2v-2.3l-0.5-0.1l0-0.3l1.2,0l1.2,0l0,0.3l-0.6,0.1
	v5.1l0.6,0.1l0,0.3l-1.2,0l-1.2,0l0-0.3l0.5-0.1V42h-2.2v2.5l0.5,0.1l0,0.3l-1.2,0l-1.2,0l0-0.3L53.9,44.5z M53.8,35.5
	c-0.3,0.2-0.4,0.5-0.4,0.9c0,0.7,0.5,1.1,1.3,1.1l1-0.7l0.2,0.7l1.5-0.3l0-0.3l-0.4,0c-0.1-0.2-0.1-0.4-0.1-0.7v-1.7
	c0-1-0.4-1.3-1.6-1.3l-1.7,0.7v0.8h1.1l0.1-1c0.1-0.1,0.3-0.1,0.4-0.1c0.4,0,0.5,0.2,0.5,0.7v0.6L53.8,35.5z M55.7,36.5l-0.2,0.1
	c-0.1,0.1-0.3,0.2-0.4,0.2c-0.2,0-0.4-0.2-0.4-0.6c0-0.3,0.1-0.5,0.3-0.7l0.8-0.3V36.5z M58,33.8h-0.6v-0.1l0.2-0.2H58v-0.6l1-0.6
	h0.2v1.2h1.1v0.3h-1.1v2.4c0,0.3,0.2,0.5,0.4,0.5c0.2,0,0.4-0.1,0.7-0.2l0.1,0.2l-1.3,0.7c-0.7,0-1.1-0.3-1.1-1.1V33.8z M98.8,19.6
	L82.3,2L70.7,0h-3.2h0h-5c0,9.2-5.7,12.7-12.7,12.7C43,12.7,37.3,9.2,37.3,0h-8.2L17.6,2L1.2,19.6c-1.6,1.6-1.6,4.2-0.1,5.8L13,46.7
	l5.5-5.7v54.9c0,2.3,2,4.2,4.3,4.2h54.2c2.3,0,4.2-1.9,4.2-4.2V40.9l6.3,5.7l11.3-21.3C100.4,23.7,100.4,21.2,98.8,19.6z M94.4,23
	l-8.3,15.6l-1.5-1.4c-0.9-0.9-2.1-1.3-3.4-1.3c-0.7,0-1.4,0.1-2,0.4c-1.8,0.8-3,2.6-3,4.6V95H23.6V40.9c0-2-1.2-3.9-3.1-4.6
	c-0.6-0.2-1.2-0.4-1.9-0.4c-1.3,0-2.6,0.5-3.6,1.5l-0.9,0.9L5.5,22.9c-0.1-0.1-0.1-0.3-0.2-0.4L20.1,6.6L29.5,5h3.3
	c1.8,8,8,12.7,17.1,12.7C59,17.7,65.3,13,67.1,5h3.3l9.5,1.6l14.9,15.8C94.6,22.7,94.5,22.8,94.4,23z M43.4,59.9
	c-0.7,0-1.2-0.5-1.3-1.4h2.4v-0.4c0-0.9-0.6-1.5-1.6-1.5c-1.3,0.3-2,1.1-2,2.3c0,1.2,0.9,2,2,2c0.6-0.2,1.1-0.5,1.6-0.9l-0.1-0.2
	C44.1,59.7,43.8,59.9,43.4,59.9z M42,58.1c0-0.7,0.2-1.2,0.7-1.2c0.5,0,0.6,0.4,0.6,1.1v0.2L42,58.1C42.1,58.2,42,58.1,42,58.1z
	 M62,51.2c-0.3,0.2-0.6,0.3-1,0.3c-0.7,0-1.2-0.5-1.3-1.4h2.4v-0.4c0-0.9-0.6-1.5-1.6-1.5c-1.3,0.3-2,1.1-2,2.3c0,1.2,0.9,2,2,2
	c0.6-0.2,1.1-0.5,1.6-0.9L62,51.2z M59.7,49.8c0-0.7,0.2-1.2,0.7-1.2c0.5,0,0.6,0.4,0.6,1.1v0.2L59.7,49.8
	C59.7,49.9,59.7,49.8,59.7,49.8z M53.3,55.1l-1.7,5.4l-0.8,0.2l-1.2-3.7l0-0.3l-1.1,3.8l-0.8,0.2l-1.8-5.6l-0.5-0.1l0-0.3l1.3,0
	l1.1,0l0,0.3l-0.6,0.1l1.2,3.9l0,0.4l0.9-3.2L49,55.1l-0.4-0.1l0-0.3l1.2,0l1.1,0l0,0.3l-0.6,0.1l1.2,3.9l0,0.4l1.3-4.3l-0.7-0.1
	l0-0.3l0.8,0l0.7,0l0,0.3L53.3,55.1z M44.5,52L45,52l0,0.3l-1,0l-0.9,0l0-0.3l0.3-0.1v-2.5c0-0.3-0.1-0.5-0.4-0.5
	c-0.2,0-0.4,0.1-0.7,0.3L42,49.4V52l0.3,0.1l0,0.3l-0.9,0l-1,0l0-0.3l0.5-0.1v-5.1l-0.5,0l0-0.3l1.3-0.2l0.3,0v2.7l1.4-0.8
	c0.5,0,0.7,0.1,0.9,0.3c0.2,0.2,0.2,0.5,0.2,1V52z M46.4,52.4l1-0.7l0.2,0.7l1.5-0.3l0-0.3l-0.4,0c-0.1-0.2-0.1-0.4-0.1-0.7v-1.7
	c0-1-0.4-1.3-1.6-1.3l-1.7,0.7v0.8h1.1l0.1-1c0.1-0.1,0.3-0.1,0.4-0.1c0.4,0,0.5,0.2,0.5,0.7v0.6l-1.8,0.6c-0.3,0.2-0.4,0.5-0.4,0.9
	C45.2,52,45.7,52.4,46.4,52.4z M46.6,50.5l0.8-0.3v1.3l-0.2,0.1c-0.1,0.1-0.3,0.2-0.4,0.2c-0.2,0-0.4-0.2-0.4-0.6
	C46.4,50.9,46.5,50.6,46.6,50.5z M62.3,60.3l0.5,0.1l0,0.3l-1,0l-1,0l0-0.3l0.5-0.1v-5.1l-0.5,0l0-0.3l1.3-0.2l0.3,0V60.3z
	 M59.8,56.6h0.7v1.2h-1c-0.1,0-0.3,0.3-0.4,0.4L59,58.3v2l0.8,0.1l0,0.3l-1.3,0l-1,0l0-0.3l0.5-0.1v-3.2l-0.5,0l0-0.3l1.3-0.3l0.3,0
	L59,58L59.8,56.6z M55.2,56.5C54,56.8,53,57.4,53,58.8c0,1.2,0.8,2,1.9,2c1.2-0.3,2.2-0.8,2.2-2.2C57.1,57.3,56.3,56.5,55.2,56.5z
	 M55.1,60.4c-0.5,0-0.9-0.7-0.9-2c0-1,0.3-1.5,0.7-1.5c0.5,0,0.9,0.6,0.9,2C55.8,59.9,55.6,60.4,55.1,60.4z M35.9,49.3
	c0,1.5,0.6,2.8,1.8,2.8c0.5,0,0.8-0.2,1.1-0.5l0.5-1.2h0.3l-0.1,1.5c-0.6,0.2-1.2,0.4-2.1,0.5c-1.6,0-3.1-1-3.1-2.9
	c0-1.9,1.2-2.9,3.3-3.2c0.8,0,1.4,0.2,1.9,0.5v1.5h-0.4l-0.5-1.1c-0.2-0.3-0.6-0.5-1.2-0.5C36.7,46.7,35.9,47.6,35.9,49.3z
	 M43.5,42.5v2l0.8,0.1l0,0.3l-1.3,0l-1,0l0-0.3l0.5-0.1v-3.2l-0.5,0l0-0.3l1.3-0.3l0.3,0l0.1,1.3l0.8-1.4H45v1.2h-1
	c-0.1,0-0.3,0.3-0.4,0.4L43.5,42.5z M38,43c-0.3,0.2-0.4,0.5-0.4,0.9c0,0.7,0.5,1.1,1.3,1.1l1-0.7l0.2,0.7l1.5-0.3l0-0.3l-0.4,0
	c-0.1-0.2-0.1-0.4-0.1-0.7V42c0-1-0.4-1.3-1.6-1.3l-1.7,0.7v0.8h1.1l0.1-1c0.1-0.1,0.3-0.1,0.4-0.1c0.4,0,0.5,0.2,0.5,0.7v0.6L38,43
	z M39.9,44l-0.2,0.1c-0.1,0.1-0.3,0.2-0.4,0.2c-0.2,0-0.4-0.2-0.4-0.6c0-0.3,0.1-0.5,0.3-0.7l0.8-0.3V44z M34.9,41.3h-0.6v-0.1
	l0.2-0.2h0.5v-0.6l1-0.6h0.2V41h1.1v0.3h-1.1v2.4c0,0.3,0.2,0.5,0.4,0.5c0.2,0,0.4-0.1,0.7-0.2l0.1,0.2l-1.3,0.7
	c-0.7,0-1.1-0.3-1.1-1.1V41.3z M31.9,45c-0.7,0-1.2-0.2-1.8-0.5L30.1,43h0.4l0.4,0.9c0.3,0.3,0.7,0.7,1.2,0.7c0.6,0,1-0.4,1-0.9
	c0-0.4-0.2-0.7-0.8-1L31.2,42c-0.6-0.3-1-0.7-1-1.4c0-0.8,0.6-1.4,2.1-1.7c0.6,0,1.1,0.1,1.7,0.4v1.4h-0.4l-0.4-1
	c-0.2-0.2-0.5-0.4-1-0.4c-0.6,0-0.9,0.3-0.9,0.8c0,0.4,0.3,0.7,0.7,0.9l1.1,0.6c0.8,0.4,1.1,0.9,1.1,1.5C34.2,44,33.5,44.6,31.9,45z
	 M40.3,60.3l0.5,0.1l0,0.3l-1,0l-0.9,0l0-0.3l0.3-0.1v-2.5c0-0.3-0.1-0.5-0.4-0.5c-0.2,0-0.4,0.1-0.7,0.3l-0.2,0.1v2.6l0.3,0.1
	l0,0.3l-0.9,0l-1,0l0-0.3l0.5-0.1v-5.1l-0.5,0l0-0.3l1.3-0.2l0.3,0v2.7l1.4-0.8c0.5,0,0.7,0.1,0.9,0.3c0.2,0.2,0.2,0.5,0.2,1V60.3z
	 M35.7,59.9l0.1,0.2l-1.3,0.7c-0.7,0-1.1-0.3-1.1-1.1v-2.6h-0.6v-0.1l0.2-0.2h0.5v-0.6l1-0.6h0.2v1.2h1.1v0.3h-1.1v2.4
	c0,0.3,0.2,0.5,0.4,0.5C35.3,60,35.5,60,35.7,59.9z M67,60.2c-0.1-0.2-0.1-0.3-0.1-0.6v-4.9l-0.4,0L65.2,55l0,0.3l0.5,0v1.6
	c-0.2-0.1-0.5-0.2-0.8-0.2c-1.2,0.2-1.9,1-1.9,2.3c0,1.1,0.7,1.9,1.7,1.9l1-0.8l0.2,0.8l1.4-0.3l0-0.3L67,60.2z M65.7,59.6l-0.1,0.1
	c-0.2,0.1-0.3,0.2-0.5,0.2c-0.5,0-0.7-0.6-0.7-1.5c0-0.9,0.3-1.5,0.9-1.5c0.2,0,0.4,0.1,0.5,0.2V59.6z"/>
</svg>
