<?xml version="1.0" encoding="utf-8"?>
<!-- Generator: Adobe Illustrator 21.1.0, SVG Export Plug-In . SVG Version: 6.00 Build 0)  -->
<svg version="1.1" id="Layer_1" xmlns="http://www.w3.org/2000/svg" xmlns:xlink="http://www.w3.org/1999/xlink" x="0px" y="0px"
	 viewBox="0 0 100 100" style="enable-background:new 0 0 100 100;" xml:space="preserve">
<path id="convocations" d="M96.7,36.3l-45-16C51.1,20.1,50.6,20,50,20s-1.1,0.1-1.7,0.3l-45,16C1.3,37,0,38.9,0,41
	c0,2.1,1.3,4,3.3,4.7L16,50.2v12.3c0,0.7,0.3,1.3,0.7,1.8c0.4,0.4,11,10.7,32.8,10.7c15.5,0,22.9-4.2,23.2-4.3
	c1.2-0.7,1.6-2.2,0.9-3.4c-0.7-1.2-2.2-1.6-3.4-0.9c-0.1,0-6.6,3.7-20.8,3.7C33,70,23.6,63.5,21,61.4V52l27.3,9.7
	c0.5,0.2,1.1,0.3,1.7,0.3s1.1-0.1,1.7-0.3l28.6-10.2v3.8c-3.4,0.6-6,3.6-6,7.1c0,3.5,2.4,6.4,5.7,7.1l-4.7,18.6
	c-0.1,0.4,0,0.8,0.2,1.1c0.2,0.3,0.6,0.5,1,0.5h10c0.4,0,0.7-0.2,1-0.5c0.2-0.3,0.3-0.7,0.2-1.1l-4.7-18.6c3.3-0.7,5.7-3.6,5.7-7.1
	c0-3.6-2.6-6.5-6-7.1v-4.7l13.9-5c2-0.7,3.3-2.6,3.3-4.7C100,38.9,98.7,37,96.7,36.3z M78.1,87.2l3.4-13.6l3.4,13.6H78.1z
	 M86.2,62.5c0,2.6-2.1,4.8-4.8,4.8s-4.8-2.1-4.8-4.8s2.1-4.8,4.8-4.8S86.2,59.9,86.2,62.5z M82.7,45.4c-0.1-0.6-0.5-1-1-1.1
	l-31.5-4.5c-0.7-0.1-1.3,0.4-1.4,1.1c-0.1,0.7,0.4,1.3,1.1,1.4l29.7,4.2L50,57L5,41l45-16l45,16L82.7,45.4z"/>
</svg>
