<?xml version="1.0" encoding="utf-8"?>
<!-- Generator: Adobe Illustrator 21.1.0, SVG Export Plug-In . SVG Version: 6.00 Build 0)  -->
<svg version="1.1" id="Layer_1" xmlns="http://www.w3.org/2000/svg" xmlns:xlink="http://www.w3.org/1999/xlink" x="0px" y="0px"
	 viewBox="0 0 100 100" style="enable-background:new 0 0 100 100;" xml:space="preserve">
<path id="invites" d="M94,14h-4V6c0-3.3-2.7-6-6-6H16c-3.3,0-6,2.7-6,6v8H6c-3.3,0-6,2.7-6,6v68c0,3.3,2.7,6,6,6h4c0,3.3,2.7,6,6,6
	h68c3.3,0,6-2.7,6-6h4c3.3,0,6-2.7,6-6V20C100,16.7,97.3,14,94,14z M94,19c0.5,0,1,0.5,1,1v14.4c0,0,0,0,0,0l-5,2.1V19H94z M6,19h4
	v18.7l-5-2V20C5,19.5,5.5,19,6,19z M6,89c-0.5,0-1-0.5-1-1V37.3l5,2V89H6z M85,94c0,0.5-0.5,1-1,1H16c-0.5,0-1-0.5-1-1V6
	c0-0.5,0.5-1,1-1h68c0.5,0,1,0.5,1,1V94z M94,89h-4V38.1l5-2.2v52C95,88.5,94.5,89,94,89z M40,76.2c0-0.4,0.3-0.8,0.8-0.8h18.5
	c0.4,0,0.8,0.3,0.8,0.8S59.7,77,59.2,77H40.8C40.3,77,40,76.7,40,76.2z M40,71.2c0-0.4,0.3-0.8,0.8-0.8h18.5c0.4,0,0.8,0.3,0.8,0.8
	S59.7,72,59.2,72H40.8C40.3,72,40,71.7,40,71.2z M59.2,48.5c0.4,0,0.8,0.3,0.8,0.8S59.7,50,59.2,50H40.8c-0.4,0-0.8-0.3-0.8-0.8
	s0.3-0.8,0.8-0.8H59.2z M35,44.2c0-0.4,0.3-0.8,0.8-0.8h28.5c0.4,0,0.8,0.3,0.8,0.8S64.7,45,64.2,45H35.8C35.3,45,35,44.7,35,44.2z
	 M70,63.8c0,0.4-0.3,0.8-0.8,0.8H30.8c-0.4,0-0.8-0.3-0.8-0.8s0.3-0.8,0.8-0.8h38.5C69.7,63,70,63.3,70,63.8z M75,57.8
	c0,0.4-0.3,0.8-0.8,0.8H25.8c-0.4,0-0.8-0.3-0.8-0.8s0.3-0.8,0.8-0.8h48.5C74.7,57,75,57.3,75,57.8z M70,83.8c0,0.4-0.3,0.8-0.8,0.8
	H30.8c-0.4,0-0.8-0.3-0.8-0.8s0.3-0.8,0.8-0.8h38.5C69.7,83,70,83.3,70,83.8z M56.4,20.8h-0.4v-0.6h-0.6v0.6h-0.4v0.4v0h-2.8v-0.9
	l-2.1-1l-2.1,1v0.9h-2.8v-0.3v-0.1h-0.4v-0.6h-0.6v0.6h-0.4v3.4h12.7V20.8z M50,23.6c-0.9,0-1.6-0.7-1.6-1.6c0-0.9,0.7-1.6,1.6-1.6
	c0.9,0,1.6,0.7,1.6,1.6C51.6,22.9,50.9,23.6,50,23.6z M46.3,13.3h0.3v3.6h-0.5v3.8h1.3v-0.4l-0.2-0.2l2.8-1.3l2.8,1.3l-0.2,0.2v0.4
	h1.3v-3.8h-0.5v-3.6h0.3l0.3-2.1h-0.9v-1.2l-1.1-0.2l-0.3-0.5h-3.2l-0.3,0.5l-1.2,0.2v1.2H46L46.3,13.3z M47.5,17.1H47v-4.3h0.4
	V17.1z M49,17.7h-0.7v-5.6H49V17.7z M50.4,17.7h-0.7v-5.6h0.7V17.7z M51.8,17.7H51v-5.6h0.7V17.7z M53,17.1h-0.5v-4.3H53V17.1z
	 M51.1,22c0,0.6-0.5,1.1-1.1,1.1c-0.6,0-1.1-0.5-1.1-1.1c0-0.6,0.5-1.1,1.1-1.1C50.6,20.8,51.1,21.4,51.1,22z M53.2,35.4v-6.8h-0.9
	v6.8h-1.9v-6.8h-0.9v6.8h-1.9v-6.8h-0.9v6.8c0,0-4.1,0-4.1,0v-8h14.6v8H53.2z M57.5,27h-15v-0.6h0.2v-1.6h14.6v1.6h0.2V27z"/>
</svg>
