<?xml version="1.0" encoding="utf-8"?>
<!-- Generator: Adobe Illustrator 21.1.0, SVG Export Plug-In . SVG Version: 6.00 Build 0)  -->
<svg version="1.1" id="Layer_1" xmlns="http://www.w3.org/2000/svg" xmlns:xlink="http://www.w3.org/1999/xlink" x="0px" y="0px"
	 viewBox="0 0 100 100" style="enable-background:new 0 0 100 100;" xml:space="preserve">
<g>
	<path d="M75.9,101c-0.3,0-0.6-0.1-0.9-0.2l-18.5-7.6c-0.5-0.2-0.9-0.5-1.2-1L43,72.8l-5.1-0.4l-3.7,5.2c-0.8,1.1-2.3,1.4-3.4,0.7
		L27,75.8l-9.1-3.3c-0.8-0.3-1.4-1-1.6-1.8l-2.6-12.8L0.6,42.1c-0.6-0.7-0.7-1.8-0.3-2.7C0.7,38.5,1.5,38,2.5,38h22.8V3.5
		c0-1.4,1.1-2.5,2.5-2.5h27.4c1.4,0,2.5,1.1,2.5,2.5v18.8l36.9,5.3c1.2,0.2,2.1,1.2,2.1,2.5v10.2l2.4,2.2c0.5,0.5,0.8,1.1,0.8,1.8
		v17.2c0,0.7-0.3,1.4-0.8,1.9L77.9,82.2l0.5,16.2c0,0.8-0.4,1.7-1.1,2.1C76.9,100.8,76.4,101,75.9,101z M59,88.9l14.2,5.8l-0.5-13.6
		c0-0.7,0.3-1.5,0.8-2L95,60.4v-15l-2.4-2.2c-0.5-0.5-0.8-1.1-0.8-1.8v-9.1l-36.9-5.3c-1.2-0.2-2.1-1.2-2.1-2.5V6H30.3v34.5
		c0,1.4-1.1,2.5-2.5,2.5h-20l10.1,12.2c0.3,0.3,0.4,0.7,0.5,1.1l2.5,12l8.1,2.9c0.2,0.1,0.3,0.1,0.5,0.2l2,1.3l3.2-4.4
		c0.5-0.7,1.4-1.1,2.2-1l7.8,0.7c0.8,0.1,1.5,0.5,1.9,1.2L59,88.9z"/>
	<path id="star_outline_1_" d="M83.9,49.6l-7.6,5.6c-0.3,0.2-0.4,0.6-0.3,1l2.9,9c0.3,0.8-0.7,1.5-1.4,1l-7.6-5.6
		c-0.3-0.2-0.7-0.2-1,0l-7.6,5.6c-0.7,0.5-1.6-0.2-1.4-1l2.9-9c0.1-0.4,0-0.8-0.3-1l-7.6-5.6c-0.7-0.5-0.3-1.6,0.5-1.6h9.4
		c0.4,0,0.7-0.2,0.8-0.6l2.9-9c0.3-0.8,1.4-0.8,1.7,0l2.9,9c0.1,0.4,0.5,0.6,0.8,0.6h9.4C84.2,48,84.6,49.1,83.9,49.6z"/>
</g>
</svg>
