<?xml version="1.0" encoding="UTF-8"?>
<svg width="1200pt" height="1200pt" version="1.1" viewBox="0 0 1200 1200" xmlns="http://www.w3.org/2000/svg">
 <g>
  <path d="m248.08 618.31s-37.387 9.3477-49.406 117.51c0 0-2.8398 10.176-8.8477 16.188-6.0078 6.0078-39.559 30.547-39.559 50.57 0 0 4.5078 14.02 35.051 10.516 30.547-3.5039 44.062-28.539 46.066-31.043 2.0039-2.5039 22.531-8.0117 41.059-10.516 18.527-2.5039 62.59-27.039 69.098-35.051 6.5117-8.0117 17.527-96.641-32.047-111.16-49.566-14.523-61.414-7.0117-61.414-7.0117z"/>
  <path d="m285.59 594.77c0.49609 6.1719-58.082 11.016-66.094 0-8.0117-11.016-12.516-16.523-15.02-30.543s-3.0039-26.539-6.0078-30.043-8.0117-14.52 11.016-10.516c19.027 4.0078 44.746 8.6758 56.082 29.543 10.621 19.566 19.02 29.043 20.023 41.559z"/>
  <path d="m420.66 756.01c-1.5352 2.6289-20.094 23.266-44.566 25.035-15.664 1.1328-20.348 4.2227-18.648 8.2266 1.6992 4.0039 4.8945 6.9023 7.9023 6.9023 3.0039 0 6.8672 0.14062 10.773-0.78125 3.4844-0.81641 8.9844-1.832 6.9805 2.1719-2.0039 4.0078-7.3984 8.4141-9.5156 12.52-2.4258 4.7109-2.5039 7.5117-1.5 9.0156 1 1.5 5.9219 4.4922 10.473 2.6992 4.4219-1.7461 15.773-7.2305 50.203-14.191 6.082-1.2266 13.43-5.0312 15.934-10.539 2.5039-5.5078 6.5117-12.016 7.5117-14.52 1-2.5039 4.0078-8.0156 5.0078-12.52 1-4.5078 7.0078-10.016 0-11.516-7.0117-1.5039-18.027-2.0039-23.535-2.5039-5.5039-0.50391-15.602-2.4336-17.02 0z"/>
  <path d="m522.31 715.02s-66.094 58.645-124.18 0c-58.082-58.648-15.023-92.195-89.629-148.28 0 0-10.008-6.0117-2.5-18.527 7.5078-12.516 71.602-91.633 71.602-91.633s10.336-10.918 29.043-4.0039c17.094 6.3164 73.957 7.3477 110.66 138.7 19.023 68.098 9.0117 110.79 5.0039 123.74z"/>
  <path d="m428.88 432.37s78.91 36.727 103.95 151.89c25.035 115.17 3.0039 120.17 14.02 120.17s21.031-9.6797 37.055-18.027c16.023-8.3438 23.367-11.012 33.047-12.352 9.6758-1.3359 30.707-3.6719 40.723-4.0039 10.016-0.33594 9.6758-3.0039 12.016-11.016 2.3398-8.0117 63.09-172.92 28.379-243.02 0 0-9.3477-15.355-35.387-21.363-26.039-6.0078-100.14-29.375-221.65 24.035 0 0.003906-20.496 6.1211-12.148 13.684z"/>
  <path d="m721.43 418.02s17.625 122.24-26.039 224.32c0 0-4.1836 10.852-8.6797 18.695-3.2422 5.6602-4.4922 8.3125-1.3164 9.1406 4.0547 1.0625 8.5273-0.015625 10.156-0.046875 2.2461-0.039063 62.598 2.2539 63.602 2.2539 1 0 7.7617 2.0039 11.141-7.8867 3.3828-9.8906 55.957-107 59.965-133.18 4.0039-26.176-3.1289-31.684-10.266-37.316-7.1367-5.6328-80.578-79.617-98.562-75.984z"/>
  <path d="m836.77 569.74s-22.531 65.094-37.555 85.121c-15.023 20.027 43.562 35.051 66.094 42.062 22.535 7.0078 69.602 23.031 85.125 25.035 15.523 2.0039 67.098 9.5156 76.609 9.5156 9.5117 0 23.535-4.5039 14.02-13.016-9.5117-8.5156-159.11-80.543-184.77-135.2l-4.0039-9.0117c0-0.003906-5.5078-16.027-15.523-4.5117z"/>
  <path d="m766.39 696.83s17.309 48.898 5.6875 67.273c-11.617 18.371-36.004 27.746-40.324 30.621-4.3281 2.8711-6.2617 3.9883-11.203 3.9531-4.9414-0.042969-7.125-4.2617-5.9102-7.6094s-0.38672-9.1016-0.38672-9.1016-28.098-3.4141-30.734-4.6641c-2.6367-1.2539-8.6719-5.7031-4.1914-9.6133 4.4805-3.9141 26.48-23.176 32.289-26.535 5.8047-3.3594 3.6289-14.641 3.6211-19.234-0.011719-4.5977-5.6641-18.52-5.6641-18.52s-4.8359-12.391 11.227-13.484c16.07-1.0977 45.59 6.9141 45.59 6.9141z"/>
 </g>
</svg>
